<?xml version="1.0" encoding="UTF-8"?>
<svg id="Layer_1" data-name="Layer 1" xmlns="http://www.w3.org/2000/svg" viewBox="0 0 376 478.04">
  <defs>
    <style>
      .cls-1 {
        fill: #0d5e5a;
      }

      .cls-1, .cls-2 {
        stroke-width: 0px;
      }

      .cls-2 {
        fill: #008c8c;
      }
    </style>
  </defs>
  <g>
    <path class="cls-1" d="m320.65,17.85l-140.13,371.05c-3.32,8.78,3.17,18.16,12.55,18.16h168.61c7.41,0,13.42-6.01,13.42-13.42V46.08c0-4.01-1.79-7.8-4.88-10.35l-28.48-23.5c-7.1-5.85-17.84-3-21.1,5.61Z"/>
    <path class="cls-2" d="m15.94,17.38l73.29,237.36c3.89,12.59,21.7,12.62,25.63.05L189.08,17.43C191.78,8.78,185.33,0,176.27,0H28.76C19.73,0,13.27,8.75,15.94,17.38Z"/>
    <path class="cls-1" d="m0,318.95v74.69c0,7.41,6.01,13.42,13.42,13.42h19.3S0,318.95,0,318.95Z"/>
  </g>
  <g>
    <g>
      <path class="cls-1" d="m.34,434.29h14.12l9.84,31.47,9.72-31.47h13.71l-16.24,43.73h-14.65L.34,434.29Z"/>
      <path class="cls-1" d="m52.87,434.29h13.54v43.73h-13.54v-43.73Z"/>
      <path class="cls-1" d="m73.22,434.29h41.07v10.8h-13.78v32.93h-13.51v-32.93h-13.78v-10.8Z"/>
      <path class="cls-1" d="m164.14,434.29h13.51v32.96h21.09v10.77h-34.6v-43.73Z"/>
      <path class="cls-1" d="m205.61,434.29h13.54v43.73h-13.54v-43.73Z"/>
      <path class="cls-1" d="m225.96,434.29h41.07v10.8h-13.78v32.93h-13.51v-32.93h-13.78v-10.8Z"/>
      <path class="cls-1" d="m273.3,434.29h36.21v9.34h-22.67v6.95h21.03v8.92h-21.03v8.62h23.32v9.9h-36.87v-43.73Z"/>
      <path class="cls-1" d="m314.55,434.29h41.07v10.8h-13.78v32.93h-13.51v-32.93h-13.78v-10.8Z"/>
      <path class="cls-1" d="m362.46,434.29h13.54v43.73h-13.54v-43.73Z"/>
    </g>
    <path class="cls-1" d="m159.43,478.04h-14.12l-9.84-31.47-9.72,31.47h-13.71l16.24-43.73h14.65l16.51,43.73Z"/>
  </g>
</svg>